# xmcd
#
# Track frame offsets: 
#        182
#        17237
#        32975
#        51412
#        80382
#        97240
#        112292
#        129570
#        144707
#        157402
#        175130
#        192070
#        211470
#        230082
#        244937
#        259770
#        276962
#        293795
#        308180
#        322910
#
# Disc length: 4521 seconds
#
# Revision: 0
# Processed by: cddbd v1.5.2PL0 Copyright (c) Steve Scherf et al.
# Submitted via: ExactAudioCopyFreeDBPlugin 1.0
#
DISCID=3c11a714
DTITLE=Various Artist - Dance Mission 8
DYEAR=1997
DGENRE=Europop
TTITLE0=Wayne Samuels - I'm A Callboy (Radio Cut)
TTITLE1=Gala - Everyone Has Inside (Edit Mix)
TTITLE2=Makoma - The Clapping Song (Claparena Mix)
TTITLE3=Soul S.K. feat. Joan Faulkner - Son Of A Preacher Man (Harmony
TTITLE3=House Mix)
TTITLE4=Celvin Rotane - Back Again
TTITLE5=The Cardigans - Lovefool (Tee's Club Radio)
TTITLE6=Nana - Lonely (Radio Mix)
TTITLE7=Marky Mark - Feel The Vibe (Original Radio Mix)
TTITLE8=Bellini - Samba De Janeiro (Radio Cut)
TTITLE9=Kim Carnes - Bette Davis Eyes (Remix Radio Edit)
TTITLE10=Le Click - Call Me (Radio Edit)
TTITLE11=JX - Close To Your Heart (Original Edit)
TTITLE12=Three 'n One - Sin City (Short Mix)
TTITLE13=Hobo feat. Muddy Waters - Hoochie Coochie Man (Video Mix)
TTITLE14=Funky Diamonds - I Know That You Want Me (Radio Edit)
TTITLE15=Desire - When I Lose Control (Radio Edit)
TTITLE16=S.A.Y. feat. Pete D'Moore - What's Your Face (Radio Version)
TTITLE17=B.B.S. and DJ Andy B. - Pow-Chi (Radio Judith)
TTITLE18=Nina - Wanna Feel So Good (Radio Edit)
TTITLE19=Da Bomb - The Original (Radio Mix)
EXTD=
EXTT0=
EXTT1=
EXTT2=
EXTT3=
EXTT4=
EXTT5=
EXTT6=
EXTT7=
EXTT8=
EXTT9=
EXTT10=
EXTT11=
EXTT12=
EXTT13=
EXTT14=
EXTT15=
EXTT16=
EXTT17=
EXTT18=
EXTT19=
PLAYORDER=
